<?xml version="1.0" encoding="utf-8" ?><svg xmlns="http://www.w3.org/2000/svg" xmlns:xlink="http://www.w3.org/1999/xlink" width="2000" height="878" viewBox="0 0 2000 878"><path fill="#FEFEFE" transform="scale(1.30208 1.14319)" d="M859.857 256.878C905.905 264.27 909.185 288.692 909.063 329.286L909.086 357.632C916.232 343.555 924.26 332.516 939.964 327.326C957.31 321.592 978.639 325.532 994.591 333.677C1015.93 344.549 1032 363.554 1039.17 386.408C1048.04 414.274 1043.8 439.158 1030.52 464.669C1001.86 518.056 929.245 523.928 887.179 481.911C875.271 470.052 866.926 455.093 863.09 438.73C857.271 414.868 859.927 375.161 860.083 349.45C860.169 318.593 860.094 287.735 859.857 256.878ZM954.385 462.903C979.478 461.42 998.683 439.983 997.41 414.879C996.137 389.774 974.862 370.39 949.748 371.453C924.335 372.529 904.67 394.112 905.958 419.516C907.246 444.919 928.993 464.403 954.385 462.903Z"/><path fill="#FEFEFE" transform="scale(1.30208 1.14319)" d="M504.482 323.574C505.255 323.495 506.031 323.443 506.808 323.416C529.242 322.717 551.81 333.424 567.766 348.73C589.584 369.659 592.675 391.908 593.346 420.766C571.654 420.689 511.115 417.662 494.292 425.188C484.153 429.724 479.701 438.782 475.877 448.525C503.082 477.425 529.179 465.978 557.171 446.592C564.003 453.201 571.097 460.666 577.821 467.471L583.811 473.974C548.258 514.386 492.952 523.544 450.431 487.933C431.178 471.622 419.163 448.355 417.009 423.214C414.84 398.007 422.836 374.284 439.162 355.061C456.572 334.562 478.13 325.793 504.482 323.574ZM462.733 408.427C471.453 400.523 477.1 395.564 488.211 391.269C513.902 384.851 522.406 388.897 545.745 387.364C536.348 373.413 525.042 362.32 506.574 364.015C477.625 368.314 469.984 382.073 462.733 408.427Z"/><path fill="#FEFEFE" transform="scale(1.30208 1.14319)" d="M752.046 324.261C794.037 318.332 835.314 349.406 844.515 390.158C846.963 401.002 847.438 409.694 847.526 420.804L803.326 420.72C771.342 420.564 745.297 413.303 729.931 448.381C758.41 477.31 782.214 466.498 810.807 446.127C816.463 451.816 822.034 457.591 827.516 463.448C830.889 466.952 834.65 470.489 838.161 473.89C819.637 492.119 803.675 504.914 776.94 508.787C752.542 512.346 727.732 506.029 708.005 491.237C688.207 476.578 675.212 454.506 672.002 430.081C664.496 376.302 698.348 331.719 752.046 324.261ZM716.546 408.543C727.381 398.491 730.128 396.737 743.293 391.167C764.841 386.373 778.186 387.471 799.894 387.656C789.366 371.206 779.336 362.9 758.702 363.94C729.553 369.267 724.632 383.13 716.546 408.543Z"/><path fill="#FEFEFE" transform="scale(1.30208 1.14319)" d="M284.176 322.048C289.61 320.964 307.997 321.699 314.136 321.863C290.362 333.035 272.491 346.398 268.136 374.036C265.342 391.438 269.668 409.232 280.139 423.409C290.789 438.222 306.975 448.1 325.018 450.799C351.626 454.826 371.321 444.034 391.992 428.714C400.594 444.779 408.174 457.582 419.035 472.318C411.508 480.644 402.257 487.076 393.023 493.319C377.835 502.002 363.586 507.866 346.145 510.108C313.817 514.253 281.176 505.268 255.522 485.164C246.238 477.972 238.683 470.38 231.301 461.089C201.641 423.757 195.756 358.832 243.646 333.311C256.655 326.379 269.566 323.777 284.176 322.048Z"/><path fill="#FEFEFE" transform="scale(1.30208 1.14319)" d="M606.402 256.483C654.679 264.301 654.626 289.172 654.836 330.885L655.116 388.34C655.505 446.893 653.346 475.043 708.247 506.839L708.072 508.171C696.913 509.354 681.472 508.752 669.973 508.695C628.083 508.487 610.431 479.755 607.685 440.967C604.41 394.706 607.202 348.433 606.475 302.048C606.236 286.907 605.986 271.585 606.402 256.483Z"/><path fill="#FEFEFE" transform="scale(1.30208 1.14319)" d="M1322.83 312.746C1323.06 312.963 1323.21 313.531 1323.35 313.891C1319.35 320.14 1313.31 327.447 1308.75 333.494C1300.14 345.074 1291.45 356.598 1282.68 368.067L1217.14 453.261C1203.6 470.78 1188.26 489.816 1175.61 507.765L1112.37 507.727L1117.76 500.6C1142.59 470.364 1166.93 438.222 1190.86 407.203C1210.4 381.86 1209.47 381.118 1199.78 351.787C1213.28 362.319 1219.89 364.545 1236.67 358.693C1251.27 353.602 1263.59 345.554 1276.96 338.051L1322.83 312.746Z"/><path fill="#FEFEFE" transform="scale(1.30208 1.14319)" d="M323.34 261.324C328.497 260.608 341.701 261.281 346.905 262.217C387.104 269.447 406.94 285.018 430.189 315.892C416.533 327.994 401.261 340.504 387.303 352.444C367.396 332.138 357.765 323.001 329.802 314.82C320.654 312.55 311.317 311.125 301.908 310.563C266.143 308.485 239.319 317.918 212.8 341.586C236.64 292.156 267.68 266.248 323.34 261.324Z"/><path fill="#FEFEFE" transform="scale(1.30208 1.14319)" d="M1057.47 326.944L1104.78 326.987L1104.83 508.508L1057.5 508.377L1057.47 326.944Z"/><path fill="#FEFEFE" transform="scale(1.30208 1.14319)" d="M1115.61 325.571C1135.64 325.371 1155.68 325.354 1175.72 325.521C1193.05 344.718 1200.63 357.51 1201.67 383.399C1199.17 388.644 1195.52 393.792 1192.27 398.65L1185.49 408.048C1162.61 384.009 1135.8 351.931 1115.61 325.571Z"/><path fill="#FEFEFE" transform="scale(1.30208 1.14319)" d="M1248.57 418.985C1251.79 421.209 1267.74 441.373 1271.48 445.989L1328.22 516.401C1319.08 510.547 1312.7 506.482 1303.06 501.592C1291.39 496.083 1275.1 489.054 1262.09 489.7C1253.04 490.15 1249.23 493.692 1243.76 499.808C1240.84 475.452 1237.07 472.747 1221.24 454.924L1248.57 418.985Z"/><path fill="#FEFEFE" transform="scale(1.30208 1.14319)" d="M1078.38 257.598C1093.95 255.308 1108.42 266.116 1110.63 281.697C1112.85 297.278 1101.97 311.691 1086.38 313.832C1070.89 315.96 1056.6 305.172 1054.4 289.695C1052.2 274.219 1062.92 259.873 1078.38 257.598Z"/></svg>