<?xml version="1.0" encoding="utf-8" ?><svg xmlns="http://www.w3.org/2000/svg" xmlns:xlink="http://www.w3.org/1999/xlink" width="2000" height="878" viewBox="0 0 2000 878"><path transform="scale(1.30208 1.14319)" d="M859.687 256.623C923.333 265.363 905.01 314.031 908.88 358.975C910.14 356.304 911.441 353.652 912.783 351.021C929.749 318.239 967.731 319.785 996.812 334.721C1017.33 345.259 1033.03 365.592 1039.58 387.588C1047.35 413.676 1043.55 440.446 1030.72 464.311C1026.54 471.676 1021.4 478.453 1015.44 484.463C999.013 500.991 976.583 510.143 953.285 509.823C927.448 509.708 904.525 499.638 886.457 481.242C874.821 469.298 866.624 454.435 862.73 438.22C857.447 416.242 859.892 376.234 859.902 352.235C859.916 320.643 859.383 288.17 859.687 256.623ZM956.634 462.733C981.617 459.987 999.721 437.625 997.208 412.618C994.695 387.611 972.503 369.299 947.474 371.579C922.113 373.889 903.504 396.44 906.05 421.779C908.597 447.118 931.321 465.515 956.634 462.733Z"/><path transform="scale(1.30208 1.14319)" d="M502.089 323.534C525.212 320.9 550.38 332.035 566.88 347.856C589.397 369.445 592.675 390.866 593.288 420.726C577.211 420.565 561.132 420.514 545.054 420.573C517.424 420.436 485.422 415.293 476.219 448.911C505.674 477.298 527.974 466.37 557.134 446.43L576.524 466.013L583.755 473.976C551.048 513.451 494.395 522.797 453.35 490.42C433.168 474.702 420.158 451.527 417.249 426.112C414.375 401.728 421.415 377.211 436.789 358.066C454.252 336.02 474.683 326.681 502.089 323.534ZM462.46 409.53C470.394 400.886 477.449 395.121 488.815 391.239C511.88 384.485 524.616 388.939 545.569 387.363C537.047 373.193 523.276 361.643 505.546 364.024C478.603 368.228 467.51 383.788 462.46 409.53Z"/><path transform="scale(1.30208 1.14319)" d="M757.728 323.553C759.112 323.477 760.497 323.443 761.883 323.451C802.656 323.691 838.284 354.486 845.785 394.471C847.438 403.279 847.456 411.748 847.405 420.649L797.4 420.467C768.827 420.288 741.271 415.797 730.079 448.403C757.284 476.511 783.317 467.357 810.647 446.007L831.243 466.509C833.358 468.602 835.959 471.623 838.025 473.878C820.926 492.889 800.229 506.411 774.297 509.173C749.439 511.926 724.51 504.642 705.045 488.937C655.894 449.237 660.03 368.831 715.055 336.631C729.304 328.293 741.472 325.127 757.728 323.553ZM716.961 408.382C726.423 399.222 730.648 395.804 743.148 391.245C762.845 386.214 779.824 387.381 799.928 387.679C790.704 372.553 777.062 361.06 758.005 363.935C731.754 368.529 722.596 384.064 716.961 408.382Z"/><path transform="scale(1.30208 1.14319)" d="M284.67 322.053C289.418 321.007 310.308 321.749 315.876 321.896C291.74 329.704 273.383 346.802 268.461 372.371C265.269 389.595 269.102 407.381 279.105 421.763C289.278 436.824 305.055 447.189 322.918 450.546C350.918 455.618 370.069 444.115 392.049 428.867C400.01 444.089 409.088 458.7 419.209 472.579C412.675 479.708 401.892 487.59 393.873 492.907C347.282 519.395 296.631 517.867 253.879 484.25C189.673 433.761 186.288 330.551 284.67 322.053Z"/><path transform="scale(1.30208 1.14319)" d="M606.07 256.322C614.791 257.015 625.005 259.896 632.512 264.429C641.878 270.076 648.85 278.96 652.11 289.4C655.715 300.736 654.751 316.422 654.832 328.529L655.284 385.777C655.425 447.95 651.336 472.464 709.818 507.764C701.985 509.082 695.208 507.507 688.118 508.186C598.338 516.786 606.164 444.797 606.143 374.815L606.07 256.322Z"/><path transform="scale(1.30208 1.14319)" d="M1325.18 311.377C1324.02 316.291 1188.78 489.895 1175.66 507.643L1112.44 507.564L1120.62 497.057L1173.28 430.246C1183.62 417.091 1197.19 400.792 1205.25 386.257C1210.14 377.429 1202.62 360.326 1199.11 350.861C1213.29 362.78 1218.66 364.771 1237.12 358.517C1250.62 353.943 1262.62 345.934 1275 338.967C1291.64 329.614 1308.37 320.417 1325.18 311.377Z"/><path transform="scale(1.30208 1.14319)" d="M322.246 261.319C327.474 260.51 342.874 261.442 348.405 262.484C387.751 269.889 407.578 285.235 430.094 315.945C417.823 325.244 399.45 341.947 387.252 352.347C366.86 331.847 358.415 323.499 330.637 314.828C285.82 303.922 248.6 310.851 213.351 340.485C218.716 327.728 225.996 315.864 234.938 305.302C258.487 277.262 286.134 264.45 322.246 261.319Z"/><path transform="scale(1.30208 1.14319)" d="M1057.5 326.947C1072.48 327.39 1089.43 327.033 1104.56 327.026L1104.67 508.471L1057.53 508.319L1057.5 326.947Z"/><path transform="scale(1.30208 1.14319)" d="M1115.87 325.65C1134.74 325.027 1156.64 325.564 1175.75 325.568C1193.04 343.81 1200.85 358.693 1201.58 383.736C1198.7 389.012 1195.56 393.57 1192.22 398.545L1185.47 407.991C1176.08 399.095 1162.15 381.689 1153.36 371.194C1142.6 358.358 1124.94 339.159 1115.87 325.65Z"/><path transform="scale(1.30208 1.14319)" d="M1248.78 418.985C1251.19 420.284 1321.48 507.803 1328.43 516.724C1320.88 511.845 1312.4 506.625 1304.45 502.541C1292.49 496.596 1273.15 488.211 1259.57 489.928C1251.49 490.948 1248.19 494.245 1243.69 500.123C1241.73 476.015 1236.84 473.253 1221.26 454.949C1230.55 443.048 1239.72 431.06 1248.78 418.985Z"/><path transform="scale(1.30208 1.14319)" d="M1076.99 257.682C1092.44 254.638 1107.43 264.717 1110.44 280.177C1113.46 295.638 1103.35 310.607 1087.88 313.587C1072.46 316.558 1057.54 306.484 1054.54 291.069C1051.54 275.654 1061.58 260.718 1076.99 257.682Z"/></svg>