<svg version="1.2" xmlns="http://www.w3.org/2000/svg" viewBox="0 0 295 242" width="64" height="64">
	<style>
		.s0 { fill: #2b2b2b } 
		.s1 { fill: #fe6100 } 
	</style>
	<path class="s0" d="m-327.68-59.47c52.69 5.19 67.07 34.36 63.43 75.73-1 11.3-0.24 30.03 0.83 41.42 19.11-45.15 71.29-48.23 114.68-27.81 26.91 12.83 46.85 34.57 55.41 60.38 10.12 29.61 4.99 60.33-11.5 87.33-4.71 7.68-12.15 16.16-19.07 22.34-21.28 19.05-50.34 29.82-80.72 29.91-32.56 0.18-63.82-11.19-86.7-31.52-16.13-14.07-27.43-31.85-32.61-51.29-6.31-23.49-3.54-74.4-3.38-101.07zm127.25 235.42c32.52-3.58 55.66-29.5 51.89-58.07-3.78-28.58-33.09-49.14-65.67-46.08-33 3.1-56.8 29.23-52.97 58.18 3.83 28.95 33.82 49.6 66.75 45.97z"/>
	<path class="s0" d="m-791.72 16.87q2.32-0.13 4.63-0.16c40.24-0.59 78.02 19.76 98.13 49.92 12.83 19.22 14.03 39.72 14.38 61.36-35.05-0.76-73.27-0.8-108.39 0.48-23.48 0.85-37 11.85-44.17 31.46 33.94 31.16 70.96 21.2 105.19-2.79q13.56 11.56 26.7 23.49l8.47 8.34c-21.35 21.95-49.42 37.05-82.51 40.24-31.91 3.26-63.98-4.91-88.95-22.66-26.14-18.47-42.64-45.45-45.75-74.78-3.08-27.67 6.58-55.28 26.83-76.66 23.24-24.97 49.58-35.05 85.44-38.24zm-52.94 98.13c9.98-9.3 18.36-15.77 32.32-20.26 29.84-8.18 48.13-3.27 76.08-4.79-11.99-18.16-27.7-27.62-52.29-26.81-35.21 4.26-49.57 22.88-56.11 51.86z"/>
	<path class="s0" d="m-461.01 16.85q3.13-0.11 6.26-0.11c51.3 0.11 97.11 33.99 108.22 77.67 2.82 11.09 2.95 22.22 2.87 33.52-34.92-0.45-73.23-0.83-108.28 0.24-22.63 0.68-36.87 12.66-44.42 31.34 34.13 32.49 70.21 21.77 104.91-2.56l25.13 21.95 10.42 9.69c-21.65 21.76-48.8 36.92-81.93 40.34-32.15 3.34-64.5-4.65-89.95-22.23-25.42-17.59-41.62-43.47-44.91-71.74-8.05-63.56 40.59-111.4 111.68-118.11zm-52.5 96.99c13.36-11.41 16.78-13.23 33.65-19.46 28.84-6.59 46.08-4.15 74.57-4.1-11.77-16.56-30.35-31.14-54.49-27.17-34.19 4.57-46.31 23.21-53.73 50.73z"/>
	<path class="s0" d="m-1078.12 15.17c8.18-1.27 34.2-0.49 43.04-0.32-32.73 9.65-56.97 28.76-62.77 59.79-3.52 19.89 2.16 40.19 15.77 56.39 13.8 16.77 33.76 27.99 57.05 31.19 35.61 4.88 60.74-7.43 88.43-25.11 12.17 19.9 20.67 31.76 35.45 50.2-10.59 9.21-19.69 15.23-31.95 22.5-22.28 11.45-40.82 18.14-66.79 20.8-41.21 3.87-82.51-6.55-115.1-29.03-50.99-35.49-84.82-102.08-41.56-154.4 17.23-20.84 50.36-29.28 78.43-32.01z"/>
	<path class="s0" d="m-657.84-59.95c25.87 2.28 48.69 12.17 58.64 34.49 6.72 15.07 4.96 33.04 5.01 49.03l0.45 64.85c0.12 25.22-2.55 55.41 6.43 78.9 9.03 23.58 30.41 42.82 54.35 54.89 2.66 1.35 7.58 3.18 8.98 5.31-8.96 1.16-17.01 0.06-25.56 0.25-30.45 0.63-57.2 3.4-80.14-17.26-24.96-22.49-27.56-50.12-27.85-80.05-0.19-18.66-0.16-37.44-0.14-56.16z"/>
	<path class="s1" d="m278.31 2.92l0.38 0.19c-0.23 2.67-176.98 203.17-194.87 224.32l-82.37-0.22 8.37-9.36c24.3-27.99 50.39-55.45 74.82-83.48 12.07-13.86 28.26-30.58 37.7-45.93 6.35-10.32-3.43-29.8-8.07-40.51 17.65 13.6 25.8 15.99 48.93 9.1 17.89-5.34 33.73-14.57 50.13-22.66q32.3-16.03 64.98-31.45z"/>
	<path class="s0" d="m-1028.04-54.28c7.88-1.03 27.9 0.11 36.03 1.52 50.68 8.77 76.01 26 104.88 61-17.59 12.17-38.27 28.52-55.59 41.51-26.39-23.33-37.17-32.99-73.4-42.76-9.04-2.39-24.91-4.63-34.07-4.95-49.03-1.69-82.96 6.32-119.36 34.66 28.04-55.89 73.29-84.26 141.51-90.98z"/>
	<path class="s0" d="m-70.06 20.85l61.4 0.07 0.03 207.33c-19.96-0.37-41.28-0.13-61.33-0.18z"/>
	<path class="s1" d="m5.6 19.29c24.84-0.72 53.33-0.15 78.45-0.15 22.55 22.32 32.31 36.45 33.62 66.63-3.68 6.03-8.57 11.98-13.01 17.66l-8.03 10.29c-12.5-11.17-25.96-25.94-37.76-38.03-18.02-18.48-36.28-37.23-53.27-56.4z"/>
	<path class="s1" d="m179.31 125.92c7.23 6.26 24.34 25.93 31.9 34.1l72.87 78.68c-10.28-6.33-21.05-12.01-32.24-16.99-16.16-6.99-40.62-16.54-59.27-14.54-9.96 1.06-14.7 5.16-20.23 11.75-2.42-27.76-8.98-31.47-29.12-51.87 12.07-13.86 24.1-27.03 36.09-41.13z"/>
	<path class="s0" d="m-44.84-58.4c20.14-3.56 39.72 7.93 43.7 25.62 3.97 17.69-9.18 34.84-29.35 38.26-20.06 3.4-39.46-8.08-43.4-25.67-3.96-17.59 9.03-34.67 29.05-38.21z"/>
</svg>