<?xml version="1.0" encoding="utf-8" ?><svg xmlns="http://www.w3.org/2000/svg" xmlns:xlink="http://www.w3.org/1999/xlink" width="2000" height="878" viewBox="0 0 2000 878"><path fill="#2B2B2B" transform="scale(1.30208 1.14319)" d="M859.638 256.765C900.105 261.302 911.152 286.82 908.351 323.012C907.587 332.892 908.17 349.275 908.994 359.239C923.672 319.744 963.744 317.054 997.064 334.915C1017.73 346.14 1033.05 365.156 1039.62 387.735C1047.39 413.63 1043.45 440.506 1030.79 464.121C1027.17 470.844 1021.46 478.258 1016.14 483.668C999.804 500.326 977.48 509.748 954.15 509.832C929.147 509.983 905.14 500.04 887.567 482.255C875.177 469.945 866.499 454.399 862.523 437.392C857.676 416.838 859.8 372.308 859.921 348.979L859.638 256.765ZM957.373 462.698C982.342 459.565 1000.12 436.896 997.219 411.899C994.315 386.902 971.81 368.915 946.787 371.59C921.439 374.301 903.166 397.163 906.108 422.485C909.05 447.808 932.078 465.871 957.373 462.698Z"/><path fill="#2B2B2B" transform="scale(1.30208 1.14319)" d="M503.26 323.538C504.444 323.463 505.629 323.416 506.815 323.399C537.72 322.883 566.734 340.688 582.18 367.065C592.029 383.884 592.952 401.81 593.222 420.744C566.299 420.076 536.948 420.04 509.976 421.16C491.945 421.909 481.559 431.53 476.052 448.683C502.116 475.937 530.551 467.23 556.842 446.244C563.784 452.984 570.618 459.833 577.343 466.79L583.853 474.089C567.451 493.286 545.894 506.497 520.485 509.287C495.973 512.136 471.347 504.99 452.167 489.463C432.095 473.306 419.42 449.71 417.031 424.054C414.668 399.845 422.089 375.697 437.637 356.992C455.483 335.146 475.715 326.336 503.26 323.538ZM462.598 409.379C470.261 401.243 476.696 395.587 487.422 391.659C510.34 384.5 524.381 388.794 545.85 387.471C536.64 371.583 524.573 363.309 505.69 364.016C478.652 367.744 467.624 384.033 462.598 409.379Z"/><path fill="#2B2B2B" transform="scale(1.30208 1.14319)" d="M757.244 323.526C758.846 323.461 760.45 323.43 762.053 323.431C801.447 323.527 836.629 353.164 845.165 391.371C847.332 401.075 847.425 410.809 847.367 420.689C820.55 420.301 791.13 419.965 764.211 420.897C746.83 421.499 735.889 431.976 730.094 448.312C756.303 476.74 784.012 467.356 810.663 446.072L829.968 465.276L837.969 473.757C821.342 492.788 800.485 506.045 775.043 509.039C750.35 511.961 725.507 504.969 705.963 489.597C686.442 474.212 673.996 451.567 671.471 426.841C665.291 371.239 702.643 329.397 757.244 323.526ZM716.925 408.366C727.183 398.384 729.806 396.792 742.763 391.344C764.911 385.577 778.158 387.716 800.033 387.753C790.998 373.268 776.724 360.519 758.184 363.988C731.931 367.984 722.617 384.293 716.925 408.366Z"/><path fill="#2B2B2B" transform="scale(1.30208 1.14319)" d="M283.298 322.051C289.581 320.941 309.568 321.63 316.353 321.775C291.221 330.212 272.604 346.932 268.145 374.077C265.447 391.478 269.807 409.235 280.257 423.407C290.854 438.076 306.19 447.885 324.073 450.682C351.42 454.959 370.719 444.186 391.99 428.721C401.338 446.129 407.861 456.499 419.214 472.633C411.084 480.688 404.089 485.953 394.676 492.311C377.566 502.333 363.325 508.182 343.383 510.507C311.734 513.893 280.015 504.784 254.986 485.12C215.826 454.073 189.843 395.82 223.068 350.054C236.3 331.829 261.74 324.44 283.298 322.051Z"/><path fill="#2B2B2B" transform="scale(1.30208 1.14319)" d="M606.073 256.34C625.947 258.34 643.471 266.994 651.114 286.515C656.276 299.699 654.921 315.418 654.959 329.403L655.303 386.132C655.401 408.191 653.345 434.603 660.247 455.145C667.179 475.774 683.596 492.608 701.981 503.166C704.026 504.34 707.803 505.943 708.885 507.81C701.999 508.826 695.817 507.863 689.253 508.029C665.865 508.575 645.318 511.001 627.707 492.931C608.533 473.258 606.541 449.084 606.311 422.901C606.168 406.584 606.195 390.15 606.208 373.783L606.073 256.34Z"/><path fill="#FE6100" transform="scale(1.30208 1.14319)" d="M1325.04 311.339L1325.33 311.504C1325.16 313.84 1189.41 489.228 1175.67 507.725L1112.41 507.539L1118.84 499.35C1137.5 474.862 1157.54 450.847 1176.3 426.323C1185.57 414.202 1198.01 399.573 1205.26 386.147C1210.13 377.122 1202.62 360.084 1199.06 350.714C1212.61 362.607 1218.87 364.698 1236.64 358.668C1250.38 354.004 1262.54 345.93 1275.14 338.847C1291.67 329.502 1308.31 320.332 1325.04 311.339Z"/><path fill="#2B2B2B" transform="scale(1.30208 1.14319)" d="M321.763 261.301C327.814 260.405 343.193 261.403 349.434 262.632C388.359 270.303 407.808 285.379 429.979 315.989C416.469 326.641 400.587 340.937 387.286 352.306C367.019 331.897 358.745 323.446 330.916 314.9C323.977 312.812 311.784 310.847 304.751 310.571C267.093 309.092 241.037 316.101 213.081 340.891C234.619 291.997 269.369 267.185 321.763 261.301Z"/><path fill="#2B2B2B" transform="scale(1.30208 1.14319)" d="M1057.49 327.024L1104.65 327.082L1104.67 508.45C1089.34 508.125 1072.97 508.332 1057.57 508.29L1057.49 327.024Z"/><path fill="#FE6100" transform="scale(1.30208 1.14319)" d="M1115.6 325.656C1134.68 325.028 1156.56 325.532 1175.85 325.525C1193.17 345.048 1200.66 357.411 1201.67 383.809C1198.84 389.086 1195.09 394.292 1191.68 399.258L1185.51 408.258C1175.91 398.489 1165.57 385.574 1156.51 374.994C1142.67 358.828 1128.65 342.43 1115.6 325.656Z"/><path fill="#FE6100" transform="scale(1.30208 1.14319)" d="M1249.01 418.929C1254.56 424.413 1267.7 441.619 1273.51 448.762L1329.47 517.59C1321.58 512.049 1313.31 507.08 1304.71 502.721C1292.3 496.613 1273.52 488.258 1259.19 490.003C1251.54 490.936 1247.9 494.524 1243.66 500.283C1241.8 476.004 1236.76 472.757 1221.29 454.914C1230.56 442.789 1239.8 431.263 1249.01 418.929Z"/><path fill="#2B2B2B" transform="scale(1.30208 1.14319)" d="M1076.86 257.702C1092.33 254.589 1107.37 264.635 1110.42 280.109C1113.47 295.582 1103.37 310.588 1087.88 313.578C1072.48 316.551 1057.58 306.514 1054.55 291.127C1051.51 275.74 1061.49 260.797 1076.86 257.702Z"/></svg>